<?xml version="1.0" encoding="utf-8"?>
<!-- Generator: Adobe Illustrator 21.0.0, SVG Export Plug-In . SVG Version: 6.00 Build 0)  -->
<svg version="1.1" id="Digital" xmlns="http://www.w3.org/2000/svg" xmlns:xlink="http://www.w3.org/1999/xlink" x="0px" y="0px"
	 viewBox="0 0 566.9 133.2" style="enable-background:new 0 0 566.9 133.2;" xml:space="preserve">
<style type="text/css">
	.st0{fill:#EC6602;}
	.st1{fill:#009999;}
</style>
<g id="Healthineers">
	<path class="st0" d="M338,99.8c0,5.8-7.8,7.2-13.3,7.3c0.2-5.8,3.3-11.5,9-11.5C336.3,95.6,338,97.2,338,99.8 M348.3,99.7
		c0-8-5.5-12.3-14-12.3c-13.8,0-21,11.3-21,23.7c0,12.6,5.7,21.6,20,21.6c8.5,0,14.4-3.9,15.4-4.7l-3.4-7.8c-2.4,1.6-6,3.6-10.5,3.6
		c-6.4,0-9.1-4.3-9.7-8.3C335.4,114.9,348.3,112.4,348.3,99.7"/>
	<path class="st0" d="M378.9,99.8c0,5.8-7.8,7.2-13.3,7.3c0.2-5.8,3.3-11.5,9-11.5C377.2,95.6,378.9,97.2,378.9,99.8 M389.2,99.7
		c0-8-5.5-12.3-14-12.3c-13.8,0-21,11.3-21,23.7c0,12.6,5.7,21.6,20,21.6c8.5,0,14.4-3.9,15.4-4.7l-3.4-7.8c-2.4,1.6-6,3.6-10.5,3.6
		c-6.4,0-9.1-4.3-9.7-8.3C376.3,114.9,389.2,112.4,389.2,99.7"/>
	<path class="st0" d="M75,99.8c0,5.8-7.8,7.2-13.3,7.3c0.2-5.8,3.3-11.5,9-11.5C73.3,95.6,75,97.2,75,99.8 M85.2,99.7
		c0-8-5.5-12.3-14-12.3c-13.8,0-21,11.3-21,23.7c0,12.6,5.7,21.6,20,21.6c8.5,0,14.4-3.9,15.4-4.7l-3.4-7.8c-2.4,1.6-6,3.6-10.5,3.6
		c-6.4,0-9.1-4.3-9.7-8.3C72.4,114.9,85.2,112.4,85.2,99.7"/>
	<polygon class="st0" points="29.2,75.3 29.2,97.7 12,97.7 12,75.3 0,75.3 0,131.3 12,131.3 12,108.2 29.2,108.2 29.2,131.3 
		41.3,131.3 41.3,75.3 	"/>
	<path class="st0" d="M118.2,117.7c0,3.1-2.5,6.3-6.9,6.3c-6.2,0-7.7-6-7.7-12.8c0-8.3,2.4-15.2,9.3-15.2c2.2,0,4.2,0.4,5.3,0.9
		V117.7z M130.6,131.3l-0.8-8.5V90.5c-6.4-2.4-12.6-3.1-15.5-3.1c-14.9,0-22.3,9.7-22.3,24.5c0,11.4,4.1,20.6,16.3,20.6
		c4.6,0,8.8-1.7,11.3-5.6l0.4,0.1l0.6,4.3H130.6z"/>
	<path class="st0" d="M140.4,75.4v43.2c0,7.1,0.7,14,12.8,14c3.7,0,8.2-1.1,10.7-2.7l-2.5-7.8c-1.9,0.8-3.6,1.4-5.1,1.4
		c-3.1,0-4.1-1.9-4.1-6.5V75.4H140.4z"/>
	<path class="st0" d="M213.4,131.3v-27.5c0-4,2.9-7.4,7.2-7.4c4.5,0,5.4,3.4,5.4,7.7v27.2h11.7v-29c0-10-4.8-15-13.6-15
		c-4.1,0-7.9,1.5-10.6,4.4V75.3h-11.7v56H213.4z"/>
	<path class="st0" d="M248.1,131.3c3.8,0,5.9,0,5.9,0s1.8,0,5.9,0c0-14,0-21.4,0-21.4s0-8.9,0-21.4c-4.1,0-5.9,0-5.9,0s-1.8,0-5.9,0
		c0,12.7,0,21.4,0,21.4S248.1,117.2,248.1,131.3z"/>
	<path class="st0" d="M247.5,75.3c0,1.8,0.6,3.3,1.7,4.3c1.1,1.1,2.7,1.7,4.6,1.7c1.9,0,3.5-0.6,4.6-1.7c1.1-1.1,1.8-2.6,1.8-4.3
		c0-1.7-0.7-3.2-1.8-4.3c-1.1-1.1-2.7-1.8-4.6-1.8c-1.9,0-3.5,0.7-4.6,1.8C248.2,72.1,247.5,73.6,247.5,75.3"/>
	<path class="st0" d="M281.8,131.3V104c0-4,2.9-7.6,7.3-7.6c4.5,0,5.2,3.5,5.2,8.1v26.9h11.7v-29.1c0-10.1-5.1-14.8-13.4-14.8
		c-5.6,0-9.9,2.4-12.7,6.3l-0.8-5.1h-9.8l0.8,7.9v34.8H281.8z"/>
	<path class="st0" d="M410,104.8c0.2-4.5,2.9-7.3,7.1-7.3c2.2,0,4.2,0.6,6,1.5l2.1-10.1c-2-1.1-4.6-1.5-7-1.5c-4,0-8.1,2.4-10.1,7.3
		l-1.1-6.1h-9.5l0.8,7.4v35.3H410V104.8z"/>
	<path class="st0" d="M457.4,91.1l0-0.1c-3.7-2.4-8.6-3.9-13.9-3.6c-8.7,0.5-15.5,5.6-15,14.5c0.5,8.9,7,11,13.4,12.5
		c3.7,0.9,6.7,1.6,6.9,4.9c0.2,3.2-2,4.6-5.1,4.7c-3.8,0.2-8.6-1.5-11.7-3.1l-3.5,8c2.5,1.6,8.8,4,16.3,3.6
		c9.7-0.5,16.1-5.6,15.6-15.2c-0.5-8.8-7.5-10.7-13.7-12.3c-3.8-1-6.7-1.9-6.9-5.2c-0.1-2.8,2.1-4,4.8-4.1c2.9-0.1,6,1.1,9.3,3.4
		L457.4,91.1z"/>
	<path class="st0" d="M181,97.8h11v-9.2h-11V75.3h-11.7v13.3h-6.5v9.2h6.5v20.8c0,7.1,0.7,14,12.8,14c3.7,0,8.2-1.1,10.7-2.7
		l-2.5-7.8c-1.9,0.8-3.6,1.4-5.1,1.4c-3.1,0-4.1-1.9-4.1-6.5V97.8z"/>
</g>
<g id="Dots">
	<path class="st0" d="M546.4,77.1c2.2,2.2,5,3.3,7.9,3.3s5.7-1.1,7.9-3.3c2.2-2.2,3.3-5,3.3-7.9c0-2.9-1.1-5.7-3.3-7.9
		c-2.2-2.2-5-3.3-7.9-3.3s-5.7,1.1-7.9,3.3c-2.2,2.2-3.3,5-3.3,7.9C543.2,72.1,544.2,74.9,546.4,77.1"/>
	<path class="st0" d="M527.7,95.9c1.7,1.7,3.9,2.5,6.1,2.5c2.2,0,4.4-0.8,6.1-2.5c1.7-1.7,2.5-3.9,2.5-6.1c0-2.2-0.8-4.4-2.5-6.1
		c-1.7-1.7-3.9-2.5-6.1-2.5c-2.2,0-4.4,0.8-6.1,2.5c-1.7,1.7-2.5,3.9-2.5,6.1C525.2,92,526,94.2,527.7,95.9"/>
	<path class="st0" d="M527.7,54.8c1.7,1.7,3.9,2.5,6.1,2.5c2.2,0,4.4-0.8,6.1-2.5c1.7-1.7,2.5-3.9,2.5-6.1c0-2.2-0.8-4.4-2.5-6.1
		c-1.7-1.7-3.9-2.5-6.1-2.5c-2.2,0-4.4,0.8-6.1,2.5c-1.7,1.7-2.5,3.9-2.5,6.1C525.2,50.9,526,53.1,527.7,54.8"/>
	<path class="st0" d="M508.5,115c1.3,1.3,3,1.9,4.7,1.9s3.4-0.6,4.7-1.9c1.3-1.3,1.9-3,1.9-4.7c0-1.7-0.6-3.4-1.9-4.7
		c-1.3-1.3-3-1.9-4.7-1.9s-3.4,0.6-4.7,1.9c-1.3,1.3-1.9,3-1.9,4.7C506.6,112.1,507.2,113.7,508.5,115"/>
	<path class="st0" d="M508.5,73.9c1.3,1.3,3,1.9,4.7,1.9c1.7,0,3.4-0.6,4.7-1.9c1.3-1.3,1.9-3,1.9-4.7c0-1.7-0.6-3.4-1.9-4.7
		c-1.3-1.3-3-1.9-4.7-1.9c-1.7,0-3.4,0.6-4.7,1.9c-1.3,1.3-1.9,3-1.9,4.7C506.6,70.9,507.3,72.6,508.5,73.9"/>
	<path class="st0" d="M508.6,32.8c1.3,1.3,3,1.9,4.7,1.9c1.7,0,3.4-0.6,4.7-1.9c1.3-1.3,1.9-3,1.9-4.7c0-1.7-0.6-3.4-1.9-4.7
		c-1.3-1.3-3-1.9-4.7-1.9c-1.7,0-3.4,0.6-4.7,1.9c-1.3,1.3-1.9,3-1.9,4.7C506.6,29.8,507.3,31.5,508.6,32.8"/>
	<path class="st0" d="M489.1,93.4c1,1,2.3,1.5,3.6,1.5c1.3,0,2.6-0.5,3.6-1.5c1-1,1.5-2.3,1.5-3.6c0-1.3-0.5-2.6-1.5-3.6
		c-1-1-2.3-1.5-3.6-1.5c-1.3,0-2.6,0.5-3.6,1.5c-1,1-1.5,2.3-1.5,3.6C487.6,91.1,488.1,92.4,489.1,93.4"/>
	<path class="st0" d="M489.1,52.3c1,1,2.3,1.5,3.6,1.5c1.3,0,2.6-0.5,3.6-1.5c1-1,1.5-2.3,1.5-3.6c0-1.3-0.5-2.6-1.5-3.6
		c-1-1-2.3-1.5-3.6-1.5c-1.3,0-2.6,0.5-3.6,1.5c-1,1-1.5,2.3-1.5,3.6C487.6,50,488.1,51.3,489.1,52.3"/>
	<path class="st0" d="M469.3,72c0.8,0.8,1.8,1.1,2.8,1.1c1,0,2-0.4,2.8-1.1c0.8-0.8,1.1-1.8,1.1-2.8c0-1-0.4-2-1.1-2.8
		c-0.8-0.8-1.8-1.1-2.8-1.1c-1,0-2,0.4-2.8,1.1s-1.1,1.8-1.1,2.8C468.2,70.3,468.6,71.3,469.3,72"/>
</g>
<g id="Siemens">
	<path class="st1" d="M140.5,48.9v-9.7c5.5,1.7,10.4,2.6,14.6,2.6c5.8,0,8.8-1.5,8.8-4.6c0-1.2-0.4-2.1-1.3-2.9
		c-0.9-0.8-3.1-2-6.7-3.5c-6.4-2.6-10.6-4.9-12.6-6.8c-2.5-2.5-3.8-5.6-3.8-9.3c0-4.8,1.8-8.5,5.5-11c3.6-2.5,8.4-3.8,14.2-3.8
		c3.2,0,7.9,0.6,14,1.8v9.3c-4.5-1.8-8.8-2.7-12.6-2.7c-5.5,0-8.2,1.5-8.2,4.5c0,1.1,0.6,2,1.7,2.8c0.9,0.6,3.5,1.8,7.6,3.7
		c6,2.6,9.9,4.9,11.9,6.9c2.3,2.3,3.5,5.3,3.5,9c0,5.3-2.3,9.3-6.9,12.1c-3.7,2.3-8.6,3.4-14.5,3.4
		C150.6,50.7,145.5,50.1,140.5,48.9"/>
	<path class="st1" d="M184.7,49.7c4.9,0,6.8,0,6.8,0s1.9,0,6.8,0c0-15.6,0-24.4,0-24.4s0-8.9,0-24.4c-5.3,0-6.8,0-6.8,0
		s-1.5,0-6.8,0c0,15.9,0,24.4,0,24.4S184.7,34.2,184.7,49.7z"/>
	<polygon class="st1" points="210.9,0.8 210.9,49.7 246.5,49.7 246.5,40.4 224.1,40.4 224.1,28.8 243.1,28.8 243.1,20.7 224.1,20.7 
		224.1,9.7 245.9,9.7 245.9,0.8 	"/>
	<polygon class="st1" points="298,0.8 285.4,32.1 273.1,0.8 255.4,0.8 255.4,49.7 265,49.7 265,15.1 279.1,50.2 287.5,50.2 
		301.9,15.1 301.9,49.7 314.8,49.7 314.8,0.8 	"/>
	<polygon class="st1" points="327.3,0.8 327.3,49.7 362.9,49.7 362.9,40.4 340.5,40.4 340.5,28.8 359.5,28.8 359.5,20.7 340.5,20.7 
		340.5,9.7 362.3,9.7 362.3,0.8 	"/>
	<polygon class="st1" points="404.5,0.8 404.5,33.6 387.7,0.8 371.9,0.8 371.9,49.7 381.5,49.7 381.5,16.6 398.7,49.7 414.1,49.7 
		414.1,0.8 	"/>
	<path class="st1" d="M423.8,48.9v-9.7c5.4,1.7,10.3,2.6,14.6,2.6c5.8,0,8.8-1.5,8.8-4.6c0-1.2-0.4-2.1-1.2-2.9
		c-0.9-0.8-3.1-2-6.7-3.5c-6.4-2.6-10.6-4.9-12.6-6.8c-2.5-2.4-3.8-5.6-3.8-9.4c0-4.8,1.8-8.5,5.5-11c3.6-2.5,8.4-3.8,14.2-3.8
		c3.3,0,7.5,0.5,12.8,1.6l1.2,0.2v9.3c-4.5-1.8-8.8-2.7-12.7-2.7c-5.5,0-8.2,1.5-8.2,4.5c0,1.1,0.5,2,1.6,2.8
		c0.9,0.5,3.4,1.8,7.6,3.7c5.9,2.6,9.9,4.9,11.9,6.9c2.4,2.3,3.5,5.3,3.5,9c0,5.3-2.3,9.3-6.9,12.1c-3.8,2.3-8.6,3.4-14.5,3.4
		C433.9,50.7,428.9,50.1,423.8,48.9"/>
</g>
</svg>
