<svg xmlns="http://www.w3.org/2000/svg" viewBox="0 0 144 130"><path d="M20.981,111.217V123.5H18.269l-7.116-7.866V123.5H7.941V111.217h2.945l6.884,7.506v-7.506Z" fill="#fff"/><path d="M32.811,121.447v1.45a5.336,5.336,0,0,1-2.565.756q-1.293,0-1.532-.931a5.224,5.224,0,0,1-2.87.931,2.559,2.559,0,0,1-1.726-.611,1.832,1.832,0,0,1-.711-1.422,2.244,2.244,0,0,1,.734-1.747q.733-.666,4.443-1.713.093-1.389-1.513-1.389a4.588,4.588,0,0,0-3.212,1.389v-2.127a7.305,7.305,0,0,1,3.775-1.011q3.691,0,3.691,2.526v3.785q0,.581.453.58A2.208,2.208,0,0,0,32.811,121.447Zm-4.227.033v-2.01a7.84,7.84,0,0,0-1.887.824,1.1,1.1,0,0,0-.512.931.884.884,0,0,0,.886.881A2.324,2.324,0,0,0,28.584,121.48Z" fill="#fff"/><path d="M40.276,115.638v1.854a5.852,5.852,0,0,0-2.907-.914q-.989,0-.988.642a.442.442,0,0,0,.208.329,9.879,9.879,0,0,0,1.593.688,4.672,4.672,0,0,1,1.955,1.211,2.294,2.294,0,0,1,.572,1.5,2.367,2.367,0,0,1-.922,2,4.268,4.268,0,0,1-2.63.7,7.624,7.624,0,0,1-3.12-.606V121.21a7.6,7.6,0,0,0,2.815.7q1.329,0,1.329-.614a.593.593,0,0,0-.246-.446,7.829,7.829,0,0,0-1.647-.733,4.575,4.575,0,0,1-1.918-1.147,2.125,2.125,0,0,1-.517-1.39,2.182,2.182,0,0,1,.992-1.848,4.387,4.387,0,0,1,2.616-.713A6.313,6.313,0,0,1,40.276,115.638Z" fill="#fff"/><path d="M45.47,111.217v5.194h.037a3.463,3.463,0,0,1,2.759-1.389,3.232,3.232,0,0,1,2.294.841,3.042,3.042,0,0,1,.9,2.336v5.3H48.718v-4.744q0-1.812-1.411-1.813A2.434,2.434,0,0,0,45.47,118.2v5.3H42.729V111.217Z" fill="#fff"/><path d="M56.981,123.653,52.953,115.2h2.939l1.846,4.571,1.879-4.571h2.906l-4.011,8.455Z" fill="#fff"/><path d="M63.934,112.5a1.361,1.361,0,0,1,.443-1.02,1.484,1.484,0,0,1,1.061-.421,1.5,1.5,0,0,1,1.071.421,1.39,1.39,0,0,1,0,2.035,1.491,1.491,0,0,1-1.071.426,1.476,1.476,0,0,1-1.061-.426A1.361,1.361,0,0,1,63.934,112.5Zm2.888,2.7v8.3h-2.74v-8.3Z" fill="#fff"/><path d="M72.284,111.217V123.5H69.543V111.217Z" fill="#fff"/><path d="M77.746,111.217V123.5H75.005V111.217Z" fill="#fff"/><path d="M88.912,120.92v1.643a6.648,6.648,0,0,1-3.886,1.09,5.464,5.464,0,0,1-3.673-1.174,3.89,3.89,0,0,1-1.375-3.11,4.112,4.112,0,0,1,1.292-3.123,4.6,4.6,0,0,1,3.3-1.224,4.468,4.468,0,0,1,3.3,1.288,4.4,4.4,0,0,1,1.2,3.45H82.812a2.333,2.333,0,0,0,.839,1.738,3.148,3.148,0,0,0,2.031.608A5.67,5.67,0,0,0,88.912,120.92Zm-6.045-2.531H86.65a1.893,1.893,0,0,0-3.783,0Z" fill="#fff"/><path d="M105.179,120.99V123.5H96.661v-.343q1.171-1.362,2.681-3.449a20.949,20.949,0,0,0,1.906-2.967,4.14,4.14,0,0,0,.4-1.7,1.72,1.72,0,0,0-.5-1.239,1.63,1.63,0,0,0-1.214-.519,4.861,4.861,0,0,0-3.1,1.53v-2.575a6.893,6.893,0,0,1,3.609-1.169,4.469,4.469,0,0,1,2.994.931,3.183,3.183,0,0,1,1.094,2.558q0,2.223-3.5,6.442Z" fill="#fff"/><path d="M111.638,111.059a3.661,3.661,0,0,1,3.2,1.678,7.959,7.959,0,0,1,1.149,4.562,8.39,8.39,0,0,1-1.116,4.676,3.608,3.608,0,0,1-3.193,1.678,3.764,3.764,0,0,1-3.272-1.67,7.967,7.967,0,0,1-1.167-4.623,7.876,7.876,0,0,1,1.186-4.645A3.751,3.751,0,0,1,111.638,111.059Zm0,10.292a1.188,1.188,0,0,0,1.126-.893,10.6,10.6,0,0,0,.35-3.353,8.505,8.505,0,0,0-.345-2.9,1.188,1.188,0,0,0-1.15-.848,1.206,1.206,0,0,0-1.149.831,9.651,9.651,0,0,0-.364,3.291,8.659,8.659,0,0,0,.364,2.967A1.228,1.228,0,0,0,111.638,121.351Z" fill="#fff"/><path d="M126.716,120.99V123.5H118.2v-.343q1.172-1.362,2.68-3.449a20.855,20.855,0,0,0,1.906-2.967,4.124,4.124,0,0,0,.4-1.7,1.72,1.72,0,0,0-.5-1.239,1.629,1.629,0,0,0-1.214-.519,4.859,4.859,0,0,0-3.1,1.53v-2.575a6.893,6.893,0,0,1,3.608-1.169,4.47,4.47,0,0,1,3,.931,3.183,3.183,0,0,1,1.094,2.558q0,2.223-3.5,6.442Z" fill="#fff"/><path d="M131.781,118.2v-2.162a1.866,1.866,0,0,0,1.287-.431,1.332,1.332,0,0,0,.485-1.028,1.247,1.247,0,0,0-.517-1.02,2.066,2.066,0,0,0-1.31-.4,5.639,5.639,0,0,0-2.363.6V111.6a7.571,7.571,0,0,1,2.944-.536,4.916,4.916,0,0,1,2.981.839,2.575,2.575,0,0,1,1.144,2.166,3.1,3.1,0,0,1-1.91,2.839,3.346,3.346,0,0,1,1.015,5.77,5.252,5.252,0,0,1-3.341.98,7.206,7.206,0,0,1-3.156-.694v-2.382a4.967,4.967,0,0,0,2.723.976,2.256,2.256,0,0,0,1.458-.453,1.437,1.437,0,0,0,.563-1.173,1.549,1.549,0,0,0-.54-1.2A2.248,2.248,0,0,0,131.781,118.2Z" fill="#fff"/><path d="M25.4,82.8l10.524-12.14h7.09v32.742H34.855V82.967L26.009,93.233H24.784L15.94,82.967v20.438H7.784V70.663h7.082Z" fill="#fff"/><path d="M61.09,70.663v32.742H52.934V70.663Z" fill="#fff"/><path d="M70.99,70.663H85.428q8.367,0,13.23,4.582a15.542,15.542,0,0,1,4.863,11.847q0,7.617-4.933,11.965t-14.074,4.348H70.99Zm8.156,6V97.405h5.321q5.18,0,7.922-2.848a10.373,10.373,0,0,0,2.742-7.512,10.28,10.28,0,0,0-2.777-7.605q-2.778-2.778-7.981-2.777Z" fill="#fff"/><path d="M136.883,97.405v6H111.922V70.663h8.156V97.405Z" fill="#fff"/><path d="M57.608,52.438a7.832,7.832,0,1,1-7.832-7.832A7.831,7.831,0,0,1,57.608,52.438Z" fill="#fff"/><line x1="49.776" y1="52.438" x2="91.265" y2="34.552" fill="none" stroke="#fff" stroke-miterlimit="10" stroke-width="2"/><path d="M101.319,34.552A10.054,10.054,0,1,1,91.265,24.5,10.054,10.054,0,0,1,101.319,34.552Z" fill="#fff"/><path d="M30.379,38.324a5.717,5.717,0,1,1-5.716-5.718A5.717,5.717,0,0,1,30.379,38.324Z" fill="#fff"/><line x1="21.915" y1="36.604" x2="50.265" y2="52.552" fill="none" stroke="#fff" stroke-miterlimit="10" stroke-width="2"/><path d="M125.38,47.324a5.718,5.718,0,1,1-5.717-5.718A5.718,5.718,0,0,1,125.38,47.324Z" fill="#fff"/><line x1="90.776" y1="34.438" x2="119.662" y2="47.324" fill="none" stroke="#fff" stroke-miterlimit="10" stroke-width="2"/><line x1="90.776" y1="33.438" x2="110.381" y2="10.042" fill="none" stroke="#fff" stroke-miterlimit="10" stroke-width="2"/><path d="M113.816,10.042a3.436,3.436,0,1,1-3.434-3.436A3.435,3.435,0,0,1,113.816,10.042Z" fill="#fff"/></svg>